<svg width="122" height="38" viewBox="0 0 122 38" fill="none" xmlns="http://www.w3.org/2000/svg">
<path d="M8.5625 21.3319L19.0275 25.0192L12.6867 14.4795L8.5625 21.3319Z" fill="#F9B233"/>
<path d="M31.7255 33.3141C31.3791 33.1862 31.1393 32.8772 31.1393 32.5095V4.22076H15.1274C14.6638 4.22076 14.2802 3.90639 14.131 3.46413C14.0564 3.24034 13.9019 2.99523 13.6195 2.71815C13.4063 2.51034 13.1346 2.35048 12.8362 2.32384C12.0742 2.24924 11.4188 2.74479 11.2323 3.43216C11.2323 3.43216 11.227 3.43749 11.2217 3.44281C11.1311 3.69325 11.1417 4.22076 10.0707 4.22076H0V25.3001L11.7172 5.82463C11.9197 5.49427 12.2873 5.32376 12.6763 5.32376C12.6763 5.32376 12.6763 5.32376 12.6817 5.32376C12.687 5.32376 12.6817 5.32376 12.687 5.32376C13.076 5.32376 13.4436 5.48894 13.6461 5.82463L29.9085 32.8612C30.095 33.1702 30.063 33.5539 29.8339 33.831C29.8339 33.831 29.8339 33.8363 29.8285 33.8416C29.6047 34.1187 29.2318 34.2253 28.8908 34.1081L5.77068 25.9662L0.122543 35.3602H28.9707C29.2584 35.3602 29.5355 35.4988 29.6793 35.7439C30.015 36.3247 30.6918 36.6923 31.4377 36.5591C32.1145 36.4419 32.6686 35.8877 32.7911 35.211C32.9457 34.3532 32.4501 33.5912 31.7148 33.3194L31.7255 33.3141Z" fill="#F9B233"/>
<path d="M33.7293 37.9342C34.1472 37.9342 34.4859 37.5954 34.4859 37.1775C34.4859 36.7596 34.1472 36.4209 33.7293 36.4209C33.3114 36.4209 32.9727 36.7596 32.9727 37.1775C32.9727 37.5954 33.3114 37.9342 33.7293 37.9342Z" fill="#F9B233"/>
<path d="M12.6867 1.31079C13.049 1.31079 13.342 1.01774 13.342 0.655405C13.342 0.293071 13.049 0 12.6867 0C12.3243 0 12.0312 0.293071 12.0312 0.655405C12.0312 1.01774 12.3243 1.31079 12.6867 1.31079Z" fill="#F9B233"/>
<path d="M42.2641 10.2122H45.3333C45.946 10.2122 46.4789 10.0897 46.9318 9.84988C47.3847 9.60477 47.731 9.26376 47.9708 8.82683C48.2106 8.38457 48.3279 7.8837 48.3279 7.31355C48.3279 6.74341 48.2106 6.23719 47.9708 5.80026C47.731 5.358 47.3847 5.01697 46.9318 4.76654C46.4789 4.52143 45.946 4.39355 45.3333 4.39355H41.5234V26.5333L42.2641 25.2225V10.2175V10.2122ZM42.2641 5.09691H45.3066C46.0259 5.09691 46.5854 5.29938 46.9851 5.69902C47.3847 6.09865 47.5819 6.63683 47.5819 7.30822C47.5819 7.9796 47.3847 8.50179 46.9851 8.90675C46.5854 9.31172 46.0259 9.50887 45.3066 9.50887H42.2641V5.09691Z" fill="black"/>
<path d="M55.6922 12.4768H50.7367V4.39355H49.9961V13.1961H55.6922V12.4768Z" fill="black"/>
<path d="M64.1528 13.1961H64.968L61.0196 4.39355H60.1671L56.2188 13.1961H57.0233L57.9771 11.0595H63.2096L64.1528 13.1961ZM58.2915 10.3561L60.5934 5.17684L62.8953 10.3561H58.2915Z" fill="black"/>
<path d="M72.8167 11.9599L67.2591 4.39355H66.5078V13.1961H67.2484V5.58712L72.8327 13.1961H73.5733V4.39355H72.8167V11.9599Z" fill="black"/>
<path d="M76.8658 11.0595H82.0984L83.0415 13.1961H83.8567L79.9083 4.39355H79.0558L75.1074 13.1961H75.912L76.8658 11.0595ZM79.4821 5.17684L81.784 10.3561H77.1802L79.4821 5.17684Z" fill="black"/>
<path d="M49.1372 18.3545L41.5176 33.2422H44.6187L49.2811 23.9121L53.9542 33.2422H57.0446L49.4303 18.3545H49.1372Z" fill="black"/>
<path d="M69.9299 20.2028C68.5552 18.9506 66.8075 18.3271 64.6814 18.3271H58.7988V33.2362H64.6814C65.7365 33.2362 66.7116 33.0816 67.5961 32.7673C68.4859 32.4582 69.2639 31.9946 69.9299 31.3819C70.6599 30.7158 71.2087 29.9165 71.5871 28.9681C71.96 28.0249 72.1465 26.9646 72.1465 25.7816C72.1465 24.5987 71.96 23.5544 71.5871 22.6112C71.2141 21.6628 70.6599 20.8635 69.9299 20.1974V20.2028ZM68.8589 28.3127C68.5765 28.9521 68.2142 29.4423 67.7666 29.8046C67.3297 30.167 66.8341 30.4068 66.2959 30.524C65.7524 30.6519 65.2143 30.7105 64.6814 30.7105H61.6442V20.8955H64.6814C65.1983 20.8955 65.7311 20.9541 66.2746 21.0713C66.8128 21.1992 67.3137 21.4336 67.7613 21.7853C68.2088 22.137 68.5765 22.6432 68.8589 23.2879C69.1466 23.9327 69.2905 24.7746 69.2905 25.7976C69.2905 26.8207 69.1466 27.6679 68.8589 28.3073V28.3127Z" fill="black"/>
<path d="M85.0184 24.7852H77.6652V18.3271H74.8145V33.2415H77.6652V27.3109H85.0184V33.2415H87.8744V18.3271H85.0184V24.7852Z" fill="black"/>
<path d="M103.553 20.3206C102.855 19.6226 102.039 19.0631 101.096 18.6581C100.164 18.2479 99.1566 18.04 98.0803 18.04C97.0039 18.04 96.0235 18.2479 95.0857 18.6581C94.1532 19.0631 93.3326 19.6226 92.6293 20.3206C91.9312 21.0133 91.3771 21.8339 90.9668 22.7824C90.5618 23.7255 90.3594 24.7272 90.3594 25.7876C90.3594 26.848 90.5672 27.8604 90.9668 28.8035C91.3771 29.736 91.9312 30.5566 92.6293 31.2599C93.3273 31.9579 94.1532 32.5121 95.0857 32.9171C96.0182 33.3274 97.0199 33.5352 98.0803 33.5352C99.1406 33.5352 100.158 33.3274 101.096 32.9171C102.039 32.5121 102.849 31.9633 103.553 31.2599C104.251 30.5619 104.805 29.736 105.215 28.8035C105.625 27.8604 105.822 26.8586 105.822 25.7876C105.822 24.7166 105.625 23.7202 105.215 22.7824C104.805 21.8339 104.251 21.0133 103.553 20.3206ZM102.588 27.7218C102.327 28.3293 101.981 28.8728 101.538 29.3417C101.091 29.8106 100.585 30.1836 99.9878 30.4607C99.4017 30.7431 98.7623 30.8763 98.0909 30.8763C97.4195 30.8763 96.7748 30.7431 96.1886 30.4607C95.6025 30.1836 95.0857 29.8106 94.6434 29.3417C94.1958 28.8728 93.8495 28.3293 93.5937 27.7218C93.3326 27.1144 93.2047 26.4697 93.2047 25.7876C93.2047 25.1056 93.3326 24.4768 93.5937 23.864C93.8495 23.2406 94.1958 22.7024 94.6434 22.2442C95.0804 21.7753 95.5972 21.4076 96.1886 21.1305C96.7748 20.8481 97.4142 20.7149 98.0909 20.7149C98.7676 20.7149 99.4017 20.8481 99.9878 21.1305C100.585 21.4076 101.091 21.7753 101.538 22.2442C101.975 22.7024 102.322 23.2406 102.588 23.864C102.844 24.4821 102.972 25.1216 102.972 25.7876C102.972 26.4537 102.844 27.1091 102.588 27.7218Z" fill="black"/>
<path d="M118.568 29.4215C118.275 29.7146 117.955 29.9703 117.598 30.1835C117.246 30.4019 116.873 30.5725 116.479 30.695C116.085 30.8176 115.68 30.8762 115.259 30.8762C114.582 30.8762 113.943 30.7376 113.357 30.4606C112.765 30.1835 112.254 29.8105 111.817 29.3522C111.38 28.8887 111.033 28.3558 110.778 27.7431C110.522 27.1303 110.389 26.4855 110.389 25.8088C110.389 25.1321 110.517 24.5033 110.778 23.8852C111.033 23.2671 111.38 22.729 111.817 22.2654C112.254 21.8018 112.765 21.4342 113.357 21.1571C113.948 20.88 114.582 20.7415 115.259 20.7415C115.68 20.7415 116.09 20.8001 116.479 20.9226C116.868 21.0452 117.246 21.2157 117.598 21.4342C117.95 21.6526 118.275 21.9031 118.568 22.1855C118.861 22.4732 119.117 22.7769 119.33 23.102L121.999 22.0203C121.674 21.4342 121.275 20.9013 120.795 20.4218C120.321 19.9422 119.793 19.5266 119.218 19.1802C118.642 18.8339 118.014 18.5675 117.342 18.3756C116.671 18.1838 115.973 18.0879 115.254 18.0879C114.193 18.0879 113.197 18.2904 112.259 18.7007C111.321 19.1056 110.506 19.6598 109.803 20.3631C109.105 21.0612 108.55 21.8818 108.14 22.8196C107.73 23.7574 107.527 24.7538 107.527 25.8141C107.527 26.8745 107.73 27.8709 108.14 28.8087C108.545 29.7466 109.099 30.5618 109.803 31.2652C110.501 31.9632 111.321 32.5173 112.259 32.9276C113.197 33.3379 114.193 33.5404 115.254 33.5404C115.973 33.5404 116.671 33.4445 117.342 33.2527C118.014 33.0609 118.637 32.7944 119.218 32.4481C119.793 32.1017 120.321 31.6861 120.795 31.2066C121.269 30.727 121.669 30.1835 121.999 29.5867L119.33 28.505C119.111 28.8301 118.856 29.1391 118.568 29.4322V29.4215Z" fill="black"/>
</svg>
