<svg width="162" height="54" viewBox="0 0 162 54" fill="none" xmlns="http://www.w3.org/2000/svg">
<path d="M51.3919 14.6548H55.4846C56.3017 14.6548 57.0122 14.4823 57.6162 14.1448C58.2201 13.7998 58.6819 13.3198 59.0016 12.7048C59.3214 12.0823 59.4777 11.3774 59.4777 10.5749C59.4777 9.77235 59.3214 9.05983 59.0016 8.44483C58.6819 7.82233 58.2201 7.34233 57.6162 6.98983C57.0122 6.64483 56.3017 6.46484 55.4846 6.46484H50.4043V37.6273L51.3919 35.7823V14.6623V14.6548ZM51.3919 7.45485H55.449C56.4082 7.45485 57.1543 7.73983 57.6872 8.30233C58.2201 8.86483 58.483 9.62234 58.483 10.5673C58.483 11.5123 58.2201 12.2473 57.6872 12.8173C57.1543 13.3873 56.4082 13.6648 55.449 13.6648H51.3919V7.45485Z" fill="url(#paint0_linear_4047_1154)"/>
<path d="M69.2967 17.8423H62.6888V6.46484H61.7012V18.8548H69.2967V17.8423Z" fill="url(#paint1_linear_4047_1154)"/>
<path d="M80.5797 18.8548H81.6668L76.4018 6.46484H75.265L70 18.8548H71.0729L72.3447 15.8474H79.3221L80.5797 18.8548ZM72.7639 14.8573L75.8334 7.56734L78.9029 14.8573H72.7639Z" fill="url(#paint2_linear_4047_1154)"/>
<path d="M92.1314 17.1148L84.7206 6.46484H83.7188V18.8548H84.7063V8.14484L92.1527 18.8548H93.1403V6.46484H92.1314V17.1148Z" fill="url(#paint3_linear_4047_1154)"/>
<path d="M97.5323 15.8474H104.51L105.767 18.8548H106.854L101.589 6.46484H100.453L95.1875 18.8548H96.2604L97.5323 15.8474ZM101.021 7.56734L104.09 14.8573H97.9515L101.021 7.56734Z" fill="url(#paint4_linear_4047_1154)"/>
<path d="M60.557 26.1133L50.3965 47.0683H54.5318L60.7489 33.9358L66.9802 47.0683H71.1012L60.9478 26.1133H60.557Z" fill="url(#paint5_linear_4047_1154)"/>
<path d="M88.2843 28.7181C86.4511 26.9556 84.1206 26.0781 81.2856 26.0781H73.4414V47.0631H81.2856C82.6925 47.0631 83.9927 46.8456 85.1722 46.4031C86.3588 45.9681 87.3961 45.3156 88.2843 44.4531C89.2577 43.5156 89.9896 42.3906 90.494 41.0556C90.9914 39.7281 91.2401 38.2356 91.2401 36.5706C91.2401 34.9056 90.9914 33.4356 90.494 32.1081C89.9967 30.7731 89.2577 29.6481 88.2843 28.7106V28.7181ZM86.8561 40.1331C86.4796 41.0331 85.9964 41.7231 85.3996 42.2331C84.8169 42.7431 84.1561 43.0806 83.4385 43.2456C82.7138 43.4256 81.9962 43.5081 81.2856 43.5081H77.2356V29.6931H81.2856C81.9749 29.6931 82.6854 29.7756 83.4101 29.9406C84.1277 30.1206 84.7956 30.4506 85.3925 30.9456C85.9893 31.4406 86.4796 32.1531 86.8561 33.0606C87.2398 33.9681 87.4317 35.1531 87.4317 36.5931C87.4317 38.0331 87.2398 39.2256 86.8561 40.1256V40.1331Z" fill="url(#paint6_linear_4047_1154)"/>
<path d="M108.405 35.1681H98.6002V26.0781H94.7988V47.0706H98.6002V38.7231H108.405V47.0706H112.214V26.0781H108.405V35.1681Z" fill="url(#paint7_linear_4047_1154)"/>
<path d="M133.118 28.8819C132.187 27.8994 131.1 27.1119 129.842 26.5419C128.599 25.9644 127.256 25.6719 125.821 25.6719C124.386 25.6719 123.078 25.9644 121.828 26.5419C120.584 27.1119 119.49 27.8994 118.552 28.8819C117.621 29.8569 116.882 31.0119 116.335 32.3469C115.795 33.6744 115.525 35.0844 115.525 36.5769C115.525 38.0694 115.802 39.4944 116.335 40.8219C116.882 42.1344 117.621 43.2894 118.552 44.2794C119.483 45.2619 120.584 46.0419 121.828 46.6119C123.071 47.1894 124.407 47.4819 125.821 47.4819C127.235 47.4819 128.592 47.1894 129.842 46.6119C131.1 46.0419 132.18 45.2694 133.118 44.2794C134.049 43.2969 134.788 42.1344 135.335 40.8219C135.882 39.4944 136.145 38.0844 136.145 36.5769C136.145 35.0694 135.882 33.6669 135.335 32.3469C134.788 31.0119 134.049 29.8569 133.118 28.8819ZM131.832 39.2994C131.484 40.1544 131.022 40.9194 130.432 41.5794C129.835 42.2394 129.16 42.7644 128.365 43.1544C127.583 43.5519 126.73 43.7394 125.835 43.7394C124.94 43.7394 124.08 43.5519 123.299 43.1544C122.517 42.7644 121.828 42.2394 121.238 41.5794C120.641 40.9194 120.179 40.1544 119.838 39.2994C119.49 38.4444 119.32 37.5369 119.32 36.5769C119.32 35.6169 119.49 34.7319 119.838 33.8694C120.179 32.9919 120.641 32.2344 121.238 31.5894C121.821 30.9294 122.51 30.4119 123.299 30.0219C124.08 29.6244 124.933 29.4369 125.835 29.4369C126.737 29.4369 127.583 29.6244 128.365 30.0219C129.16 30.4119 129.835 30.9294 130.432 31.5894C131.015 32.2344 131.477 32.9919 131.832 33.8694C132.173 34.7394 132.344 35.6394 132.344 36.5769C132.344 37.5144 132.173 38.4369 131.832 39.2994Z" fill="url(#paint8_linear_4047_1154)"/>
<path d="M153.136 41.6908C152.745 42.1033 152.319 42.4633 151.843 42.7633C151.374 43.0708 150.877 43.3108 150.351 43.4833C149.825 43.6558 149.285 43.7383 148.724 43.7383C147.821 43.7383 146.969 43.5433 146.187 43.1533C145.399 42.7633 144.716 42.2383 144.134 41.5933C143.551 40.9408 143.089 40.1908 142.748 39.3283C142.407 38.4658 142.23 37.5583 142.23 36.6058C142.23 35.6533 142.4 34.7683 142.748 33.8983C143.089 33.0283 143.551 32.2708 144.134 31.6183C144.716 30.9658 145.399 30.4483 146.187 30.0583C146.976 29.6683 147.821 29.4733 148.724 29.4733C149.285 29.4733 149.832 29.5558 150.351 29.7283C150.87 29.9008 151.374 30.1408 151.843 30.4483C152.312 30.7558 152.745 31.1083 153.136 31.5058C153.527 31.9108 153.868 32.3383 154.152 32.7958L157.712 31.2733C157.279 30.4483 156.746 29.6983 156.106 29.0233C155.474 28.3483 154.77 27.7633 154.003 27.2758C153.236 26.7883 152.397 26.4133 151.502 26.1433C150.607 25.8733 149.676 25.7383 148.717 25.7383C147.303 25.7383 145.974 26.0233 144.724 26.6008C143.473 27.1708 142.386 27.9508 141.448 28.9408C140.517 29.9233 139.778 31.0783 139.231 32.3983C138.684 33.7183 138.414 35.1208 138.414 36.6133C138.414 38.1058 138.684 39.5083 139.231 40.8283C139.771 42.1483 140.51 43.2958 141.448 44.2858C142.379 45.2683 143.473 46.0483 144.724 46.6258C145.974 47.2033 147.303 47.4883 148.717 47.4883C149.676 47.4883 150.607 47.3533 151.502 47.0833C152.397 46.8133 153.229 46.4383 154.003 45.9508C154.77 45.4633 155.474 44.8783 156.106 44.2033C156.739 43.5283 157.271 42.7633 157.712 41.9233L154.152 40.4008C153.861 40.8583 153.52 41.2933 153.136 41.7058V41.6908Z" fill="url(#paint9_linear_4047_1154)"/>
<path d="M12.9316 30.2974L26.8864 35.4873L18.4311 20.6523L12.9316 30.2974Z" fill="#F9B233"/>
<path d="M43.8184 47.1656C43.3565 46.9856 43.0368 46.5506 43.0368 46.0331V6.21561H21.6855C21.0673 6.21561 20.5558 5.77312 20.3568 5.15062C20.2573 4.83563 20.0513 4.49063 19.6747 4.10063C19.3905 3.80813 19.0281 3.58311 18.6302 3.54561C17.6142 3.44061 16.7402 4.13813 16.4915 5.10563C16.4915 5.10563 16.4845 5.11312 16.4773 5.12062C16.3566 5.47312 16.3708 6.21561 14.9426 6.21561H1.51367V35.8856L17.1381 8.47312C17.4081 8.00812 17.8984 7.76812 18.4171 7.76812C18.4171 7.76812 18.4171 7.76812 18.4242 7.76812C18.4313 7.76812 18.4242 7.76812 18.4313 7.76812C18.95 7.76812 19.4402 8.00062 19.7102 8.47312L41.3955 46.5281C41.6442 46.9631 41.6015 47.5031 41.296 47.8931C41.296 47.8931 41.296 47.9006 41.2889 47.9081C40.9905 48.2981 40.4931 48.4481 40.0384 48.2831L9.20866 36.8231L1.67708 50.0456H40.145C40.5286 50.0456 40.8981 50.2406 41.0899 50.5856C41.5376 51.4031 42.44 51.9206 43.4347 51.7331C44.3371 51.5681 45.076 50.7881 45.2394 49.8356C45.4455 48.6281 44.7847 47.5556 43.8042 47.1731L43.8184 47.1656Z" fill="#F9B233"/>
<path d="M46.4894 53.6671C47.0466 53.6671 47.4984 53.1903 47.4984 52.6021C47.4984 52.0139 47.0466 51.5371 46.4894 51.5371C45.9322 51.5371 45.4805 52.0139 45.4805 52.6021C45.4805 53.1903 45.9322 53.6671 46.4894 53.6671Z" fill="#F9B233"/>
<path d="M18.4306 2.12038C18.9138 2.12038 19.3045 1.7079 19.3045 1.1979C19.3045 0.687899 18.9138 0.275391 18.4306 0.275391C17.9474 0.275391 17.5566 0.687899 17.5566 1.1979C17.5566 1.7079 17.9474 2.12038 18.4306 2.12038Z" fill="#F9B233"/>
<path d="M31.0996 6.2168L43.0365 46.0343V6.2168H31.0996Z" fill="url(#paint10_linear_4047_1154)"/>
<path d="M9.94708 6.2168L1.52734 35.8793V6.2168H9.94708Z" fill="url(#paint11_linear_4047_1154)"/>
<path d="M6.0837 42.3223L39.4571 50.0398H1.68555L6.0837 42.3223Z" fill="url(#paint12_linear_4047_1154)"/>
<defs>
<linearGradient id="paint0_linear_4047_1154" x1="56.3269" y1="48.6205" x2="49.5622" y2="48.4502" gradientUnits="userSpaceOnUse">
<stop stop-color="#F9B233"/>
<stop offset="1" stop-color="#F39200"/>
</linearGradient>
<linearGradient id="paint1_linear_4047_1154" x1="66.6591" y1="23.2256" x2="61.0086" y2="22.9261" gradientUnits="userSpaceOnUse">
<stop stop-color="#F9B233"/>
<stop offset="1" stop-color="#F39200"/>
</linearGradient>
<linearGradient id="paint2_linear_4047_1154" x1="77.6155" y1="23.2256" x2="68.9691" y2="22.5216" gradientUnits="userSpaceOnUse">
<stop stop-color="#F9B233"/>
<stop offset="1" stop-color="#F39200"/>
</linearGradient>
<linearGradient id="paint3_linear_4047_1154" x1="89.8687" y1="23.2256" x2="82.8702" y2="22.7654" gradientUnits="userSpaceOnUse">
<stop stop-color="#F9B233"/>
<stop offset="1" stop-color="#F39200"/>
</linearGradient>
<linearGradient id="paint4_linear_4047_1154" x1="102.803" y1="23.2256" x2="94.1566" y2="22.5216" gradientUnits="userSpaceOnUse">
<stop stop-color="#F9B233"/>
<stop offset="1" stop-color="#F39200"/>
</linearGradient>
<linearGradient id="paint5_linear_4047_1154" x1="63.9114" y1="54.4606" x2="48.5771" y2="53.1503" gradientUnits="userSpaceOnUse">
<stop stop-color="#F9B233"/>
<stop offset="1" stop-color="#F39200"/>
</linearGradient>
<linearGradient id="paint6_linear_4047_1154" x1="85.0594" y1="54.466" x2="71.8522" y2="53.4973" gradientUnits="userSpaceOnUse">
<stop stop-color="#F9B233"/>
<stop offset="1" stop-color="#F39200"/>
</linearGradient>
<linearGradient id="paint7_linear_4047_1154" x1="106.166" y1="54.4761" x2="93.2409" y2="53.5488" gradientUnits="userSpaceOnUse">
<stop stop-color="#F9B233"/>
<stop offset="1" stop-color="#F39200"/>
</linearGradient>
<linearGradient id="paint8_linear_4047_1154" x1="128.985" y1="55.1758" x2="113.704" y2="53.9265" gradientUnits="userSpaceOnUse">
<stop stop-color="#F9B233"/>
<stop offset="1" stop-color="#F39200"/>
</linearGradient>
<linearGradient id="paint9_linear_4047_1154" x1="151.011" y1="55.161" x2="136.698" y2="54.0628" gradientUnits="userSpaceOnUse">
<stop stop-color="#F9B233"/>
<stop offset="1" stop-color="#F39200"/>
</linearGradient>
<linearGradient id="paint10_linear_4047_1154" x1="45.4025" y1="29.3543" x2="26.2466" y2="5.8695" gradientUnits="userSpaceOnUse">
<stop stop-color="#F9B233"/>
<stop offset="1" stop-color="#F39200"/>
</linearGradient>
<linearGradient id="paint11_linear_4047_1154" x1="0.440239" y1="24.0443" x2="9.07048" y2="2.65065" gradientUnits="userSpaceOnUse">
<stop stop-color="#F9B233"/>
<stop offset="1" stop-color="#F39200"/>
</linearGradient>
<linearGradient id="paint12_linear_4047_1154" x1="26.3408" y1="52.7623" x2="2.44326" y2="42.6477" gradientUnits="userSpaceOnUse">
<stop stop-color="#F9B233"/>
<stop offset="1" stop-color="#F39200"/>
</linearGradient>
</defs>
</svg>
